# xmcd CD database file
#
# Track frame offsets:
#	150
#	15961
#	31818
#	43741
#	66974
#	83723
#	97363
#
# Disc length: 1595 seconds
#
# Revision: 0
# Processed by: cddbd v1.5.2PL0 Copyright (c) Steve Scherf et al.
# Submitted via: CDex 1.70beta2
#
DISCID=51063907
DTITLE=Blue Dolphins - So what
DYEAR=2011
DGENRE=Jazz
TTITLE0=Crawling up a hill
TTITLE1=Summer Samba
TTITLE2=Brother can you spare your car
TTITLE3=Autumn leaves
TTITLE4=Cantaloupe Island
TTITLE5=You are the sunshine of my life
TTITLE6=So what
EXTD=YEAR: 2011
EXTT0=
EXTT1=
EXTT2=
EXTT3=
EXTT4=
EXTT5=
EXTT6=
PLAYORDER=
